<svg xmlns="http://www.w3.org/2000/svg" version="1.1" xmlns:xlink="http://www.w3.org/1999/xlink" xmlns:svgjs="http://svgjs.dev/svgjs" width="1440" height="560" preserveAspectRatio="none" viewBox="0 0 1440 560">
    <g mask="url(&quot;#SvgjsMask1002&quot;)" fill="none">
        <rect width="1440" height="560" x="0" y="0" fill="#052f4a"></rect>
        <path d="M1488 560L0 560 L0 297.06Q69.25 294.31, 72 363.56Q119.97 339.53, 144 387.51Q209.72 333.23, 264 398.95Q288.83 351.78, 336 376.62Q353 321.62, 408 338.61Q459.08 269.69, 528 320.78Q628.86 301.63, 648 402.49Q675.1 309.59, 768 336.69Q794.76 291.45, 840 318.21Q919.39 277.61, 960 357Q1015.4 340.4, 1032 395.81Q1060.28 352.09, 1104 380.36Q1134.16 290.52, 1224 320.68Q1271.9 248.58, 1344 296.48Q1385.99 266.47, 1416 308.46Q1490.74 311.2, 1488 385.95z" fill="#114a8c"></path>
        <path d="M1560 560L0 560 L0 422.79Q47.2 350, 120 397.2Q173.88 379.07, 192 432.95Q246.75 367.7, 312 422.46Q366.07 404.53, 384 458.61Q441.36 443.97, 456 501.32Q456.14 381.46, 576 381.6Q664.32 349.92, 696 438.23Q760.25 430.48, 768 494.72Q795.59 450.31, 840 477.89Q857.94 375.83, 960 393.77Q1012.93 326.7, 1080 379.64Q1163.97 343.61, 1200 427.58Q1282.13 389.72, 1320 471.85Q1347.94 379.8, 1440 407.74Q1522.03 369.77, 1560 451.8z" fill="#356cb1"></path>
        <path d="M1464 560L0 560 L0 523.73Q19.43 471.17, 72 490.6Q158.35 456.95, 192 543.3Q273.11 504.4, 312 585.51Q315.99 517.5, 384 521.49Q434.06 451.55, 504 501.61Q532.88 458.49, 576 487.36Q674.31 465.67, 696 563.99Q744.77 492.76, 816 541.53Q869.34 474.87, 936 528.21Q977.75 449.96, 1056 491.71Q1084.21 447.92, 1128 476.14Q1216.06 444.19, 1248 532.25Q1270.53 482.77, 1320 505.3Q1340.08 453.38, 1392 473.45Q1436.52 445.97, 1464 490.49z" fill="#ffffff"></path>
    </g>
    <defs>
        <mask id="SvgjsMask1002">
            <rect width="1440" height="560" fill="#ffffff"></rect>
        </mask>
    </defs>
</svg>